<?xml version="1.0" standalone="no"?>
<!DOCTYPE svg PUBLIC "-//W3C//DTD SVG 20010904//EN"
 "http://www.w3.org/TR/2001/REC-SVG-20010904/DTD/svg10.dtd">
<svg version="1.0" xmlns="http://www.w3.org/2000/svg"
 width="225.000000pt" height="225.000000pt" viewBox="0 0 225.000000 225.000000"
 preserveAspectRatio="xMidYMid meet">

<g transform="translate(0.000000,225.000000) scale(0.100000,-0.100000)"
fill="#000000" stroke="none">
<path d="M1645 1913 c-78 -167 -75 -156 -54 -182 23 -28 25 -45 4 -37 -8 3
-21 9 -29 12 -9 3 -25 -17 -50 -65 -20 -38 -37 -78 -39 -89 -1 -10 -46 -57
-99 -104 l-95 -85 -94 23 c-105 27 -348 83 -514 120 -60 13 -152 34 -203 46
-106 24 -106 24 -117 -49 -11 -73 -120 -517 -174 -708 -45 -160 -83 -345 -82
-399 0 -11 6 -25 14 -33 11 -12 31 -6 131 42 65 30 148 66 185 79 36 13 89 34
116 46 28 12 93 37 145 57 52 20 130 53 172 74 43 22 121 57 175 78 104 42
221 93 418 184 150 69 171 75 179 50 15 -51 98 -404 103 -439 6 -43 18 -72 27
-63 3 2 1 34 -4 69 -13 94 9 254 34 244 7 -3 18 2 25 10 16 19 -6 136 -26 136
-16 0 -29 25 -38 72 l-7 37 102 51 c91 46 100 53 94 73 -10 33 -17 38 -66 42
-24 3 -78 15 -118 27 l-74 24 -25 99 -24 100 31 90 c18 49 32 95 32 101 0 6
-15 17 -32 26 l-33 15 40 7 40 7 40 102 c22 56 40 107 40 112 0 12 -83 55
-106 55 -11 0 -27 -20 -44 -57z m114 18 c11 -7 21 -15 21 -19 0 -3 -17 -48
-37 -99 -27 -70 -41 -93 -55 -93 -22 0 -23 21 -2 61 8 17 13 33 11 35 -3 3
-13 -15 -23 -40 -18 -44 -34 -60 -34 -33 1 6 16 52 35 102 19 49 32 91 30 93
-3 4 -65 -152 -65 -166 0 -16 -25 -31 -39 -23 -10 6 -7 22 14 72 55 130 61
139 93 129 16 -4 39 -13 51 -19z m-138 -262 c37 -14 59 -27 59 -37 0 -23 -41
-135 -56 -151 -8 -9 -9 -19 -3 -30 5 -9 20 -59 33 -111 13 -52 47 -187 75
-299 49 -192 52 -207 40 -253 -12 -52 -25 -53 -32 -3 -4 29 -4 28 -6 -5 0 -20
4 -41 11 -48 9 -9 9 -15 0 -24 -8 -8 -15 -8 -21 -3 -6 6 -39 123 -74 260 -36
138 -76 289 -91 338 -14 48 -26 94 -26 103 0 8 16 22 36 30 20 8 34 17 31 20
-3 3 -19 -2 -36 -11 l-32 -16 -13 33 c-30 73 -30 94 5 163 19 36 35 65 38 65
2 0 30 -10 62 -21z m-1051 -154 c91 -20 208 -47 260 -60 52 -14 164 -41 248
-60 84 -19 159 -38 167 -42 10 -6 -12 -29 -79 -84 -87 -72 -95 -76 -137 -74
-24 1 -51 5 -59 8 -8 3 -44 10 -80 17 -36 6 -127 25 -202 42 -135 30 -165 31
-172 6 -2 -7 -11 -38 -20 -68 -9 -30 -30 -116 -46 -190 -17 -74 -36 -160 -44
-190 -26 -104 -27 -103 67 -62 45 19 152 64 237 98 165 68 162 69 62 -19 -29
-25 -43 -57 -24 -57 4 0 34 25 66 55 33 30 68 57 79 61 10 3 38 19 62 35 24
16 47 29 53 29 5 0 34 11 63 24 30 13 109 45 177 71 70 27 121 52 119 59 -2 6
-34 17 -72 23 -37 7 -70 14 -71 16 -2 2 31 37 74 79 l77 76 88 -23 c48 -12 90
-24 92 -26 2 -3 17 -53 33 -112 29 -105 31 -140 5 -95 l-12 23 -1 -26 c0 -19
-6 -28 -22 -33 -13 -3 -24 -1 -26 4 -2 6 -8 10 -13 10 -4 0 -6 -7 -3 -15 9
-23 -40 -42 -63 -24 -15 12 -16 12 -10 -3 9 -26 -32 -47 -48 -24 -17 23 -28
20 -15 -4 9 -17 7 -22 -15 -30 -36 -14 -42 -13 -55 8 -10 15 -11 14 -6 -6 3
-18 -2 -26 -21 -35 -21 -9 -27 -8 -38 6 -17 24 -26 21 -20 -6 5 -19 0 -25 -30
-36 -30 -10 -39 -10 -52 1 -15 11 -16 11 -10 -4 5 -13 -2 -22 -24 -34 -29 -14
-32 -14 -46 3 -14 17 -14 17 -10 -4 4 -17 -2 -26 -24 -37 -29 -14 -30 -14 -41
10 -6 13 -15 24 -20 24 -13 0 -10 -12 8 -31 16 -17 15 -19 -10 -29 -40 -15
-53 -12 -59 12 -4 12 -9 19 -12 16 -4 -3 -2 -16 5 -27 10 -20 7 -23 -32 -41
l-43 -20 -19 23 -19 22 6 -26 c6 -22 2 -28 -30 -43 -29 -14 -38 -15 -44 -4 -5
7 -9 16 -9 21 0 4 -5 7 -10 7 -7 0 -7 -7 0 -21 13 -24 15 -21 -29 -44 -28 -14
-35 -14 -42 -3 -5 7 -9 16 -9 21 0 4 -5 7 -10 7 -7 0 -7 -6 0 -19 5 -11 10
-22 10 -25 0 -6 -70 -29 -74 -24 -2 1 -8 12 -15 23 -10 18 -11 16 -6 -11 5
-29 3 -32 -36 -47 -24 -9 -43 -16 -44 -14 -1 1 -7 11 -14 22 -11 19 -12 18 -7
-6 5 -22 0 -28 -29 -42 -34 -16 -35 -16 -49 11 -9 16 -15 21 -16 12 0 -9 5
-21 11 -27 9 -9 3 -15 -22 -26 -32 -14 -35 -14 -53 7 l-19 21 7 -27 c5 -23 3
-27 -25 -33 -23 -5 -34 -3 -44 11 -12 17 -13 16 -8 -7 4 -23 0 -28 -28 -38
-18 -6 -33 -10 -34 -9 -3 4 21 147 36 218 6 30 27 107 46 170 35 117 156 602
167 675 10 60 16 75 29 75 7 0 86 -16 177 -35z m923 -27 c5 -17 -4 -30 -41
-62 -26 -23 -63 -56 -82 -75 -19 -18 -7 -9 28 20 107 91 95 90 124 2 14 -43
24 -81 22 -84 -4 -7 -135 20 -147 31 -4 3 17 26 47 50 30 24 53 46 51 48 -9 9
-82 -55 -237 -205 -161 -155 -272 -253 -288 -253 -27 0 -17 101 13 140 7 9 48
44 92 80 144 115 249 203 318 267 72 68 91 75 100 41z m-947 -235 c-14 -44
-59 -202 -69 -236 -17 -65 -19 -33 -2 40 26 112 58 213 67 213 5 0 7 -8 4 -17z
m154 -12 c47 -10 122 -24 167 -32 111 -17 116 -22 70 -61 -29 -26 -36 -38 -31
-56 5 -18 12 -22 30 -18 l22 6 -16 -41 c-29 -74 -93 -111 -426 -245 -33 -13
-64 -24 -69 -24 -12 0 -1 64 34 195 26 100 73 262 84 293 3 7 14 10 27 8 13
-3 61 -14 108 -25z m1083 -31 c31 -11 72 -20 92 -20 45 0 45 -12 -1 -34 -35
-16 -37 -16 -51 1 -13 17 -14 16 -8 -5 8 -28 -18 -40 -42 -21 -15 12 -16 12
-10 -3 6 -16 -18 -46 -29 -35 -6 6 -34 107 -34 125 0 17 16 15 83 -8z m-745
-35 c-2 -5 -9 -9 -15 -9 -7 1 -10 -3 -6 -9 4 -7 0 -8 -11 -4 -14 5 -17 3 -12
-8 6 -18 -9 -20 -20 -3 -9 14 33 50 53 46 8 -2 13 -7 11 -13z m892 -19 c0 -6
-143 -82 -169 -91 -11 -3 -21 -2 -21 3 0 5 39 28 88 50 84 40 102 47 102 38z
m-960 -32 c0 -14 -21 -19 -33 -7 -9 9 13 34 24 27 5 -3 9 -12 9 -20z m314 0
c47 -7 59 -18 29 -27 -10 -3 -74 -28 -142 -56 -68 -28 -125 -50 -127 -49 -1 2
31 33 72 71 78 70 84 72 168 61z m321 -113 c-15 -14 -178 -82 -183 -76 -3 2 6
9 19 14 13 5 56 23 94 40 76 33 84 36 70 22z m-658 -48 c4 -10 -2 -23 -17 -35
-21 -17 -25 -17 -39 -4 -13 14 -13 18 4 36 22 24 43 26 52 3z m344 -95 c-58
-28 -166 -75 -240 -105 -75 -31 -165 -70 -201 -88 -36 -18 -148 -65 -250 -105
-102 -40 -246 -99 -320 -132 -74 -33 -141 -62 -147 -65 -7 -3 -13 1 -13 8 0 8
28 25 62 38 91 35 448 183 548 227 47 20 141 61 210 90 69 28 195 82 280 118
85 36 160 65 165 65 6 0 -37 -23 -94 -51z m519 -28 c0 -5 -4 -10 -10 -10 -5 0
-10 5 -10 10 0 6 5 10 10 10 6 0 10 -4 10 -10z m-1391 -64 c-9 -8 -10 -7 -5 7
3 10 7 26 7 35 1 9 4 6 6 -7 3 -13 -1 -28 -8 -35z m1327 -101 c8 -21 -6 -41
-17 -24 -12 19 -11 39 1 39 6 0 13 -7 16 -15z"/>
<path d="M1717 1875 c-24 -50 -20 -58 4 -12 11 22 19 41 17 43 -3 2 -12 -12
-21 -31z"/>
<path d="M1546 1589 c-32 -25 -33 -53 -4 -73 31 -22 45 -20 64 9 18 28 12 60
-16 75 -13 7 -24 4 -44 -11z m57 -21 c6 -21 -7 -58 -21 -58 -15 0 -52 31 -52
44 0 37 64 50 73 14z"/>
<path d="M1562 1395 c0 -11 3 -29 8 -40 11 -25 11 1 0 35 -6 20 -8 21 -8 5z"/>
<path d="M1581 1320 c0 -8 4 -22 9 -30 12 -18 12 -2 0 25 -6 13 -9 15 -9 5z"/>
<path d="M1616 1220 c3 -14 11 -32 16 -40 6 -10 7 -7 2 10 -3 14 -11 32 -16
40 -6 10 -7 7 -2 -10z"/>
<path d="M1651 1120 c0 -8 4 -24 9 -35 5 -13 9 -14 9 -5 0 8 -4 24 -9 35 -5
13 -9 14 -9 5z"/>
<path d="M1670 1054 c1 -18 48 -189 49 -176 1 15 -38 175 -45 181 -2 2 -4 0
-4 -5z"/>
<path d="M1722 840 c0 -14 2 -19 5 -12 2 6 2 18 0 25 -3 6 -5 1 -5 -13z"/>
<path d="M1240 1244 c-101 -90 -119 -109 -64 -66 46 35 162 141 154 141 -3 0
-43 -34 -90 -75z"/>
<path d="M1066 1080 c-38 -33 -73 -60 -78 -60 -4 0 -8 -5 -8 -11 0 -13 36 14
110 81 77 70 60 63 -24 -10z"/>
<path d="M1958 683 c-38 -10 -15 -18 43 -15 33 2 71 1 85 -2 32 -8 59 -64 50
-101 -12 -47 -94 -117 -196 -167 -136 -67 -222 -89 -365 -94 -145 -5 -208 11
-237 62 -18 30 -18 34 -2 73 12 31 32 52 76 82 32 22 75 47 94 55 34 14 36 14
41 -6 3 -11 7 -20 9 -20 2 0 24 15 50 33 l46 32 -52 23 c-57 25 -73 22 -65
-11 5 -19 -4 -27 -62 -57 -140 -72 -194 -154 -147 -225 42 -64 273 -81 439
-31 244 72 411 203 384 300 -15 53 -51 76 -117 75 -31 -1 -65 -3 -74 -6z"/>
</g>
</svg>
