<?xml version="1.0" standalone="no"?>
<!DOCTYPE svg PUBLIC "-//W3C//DTD SVG 20010904//EN"
 "http://www.w3.org/TR/2001/REC-SVG-20010904/DTD/svg10.dtd">
<svg version="1.0" xmlns="http://www.w3.org/2000/svg"
 width="350.000000pt" height="300.000000pt" viewBox="0 0 350.000000 300.000000"
 preserveAspectRatio="xMidYMid meet">

<g transform="translate(0.000000,300.000000) scale(0.100000,-0.100000)"
fill="#000000" stroke="none">
<path d="M1733 2733 c-20 -7 -18 -197 2 -213 12 -10 18 -10 30 0 22 19 22 205
-1 214 -9 3 -16 6 -17 5 -1 0 -8 -3 -14 -6z"/>
<path d="M1391 2667 c-18 -23 49 -191 78 -195 35 -5 35 23 -1 115 -34 88 -53
108 -77 80z"/>
<path d="M2062 2663 c-26 -52 -63 -166 -58 -179 3 -9 15 -14 27 -12 29 4 96
172 78 194 -16 19 -37 17 -47 -3z"/>
<path d="M1097 2503 c-16 -15 -4 -39 51 -104 39 -47 64 -69 80 -69 38 0 26 36
-35 110 -53 64 -79 81 -96 63z"/>
<path d="M2308 2440 c-62 -74 -74 -110 -35 -110 28 0 140 131 135 157 -7 40
-42 24 -100 -47z"/>
<path d="M1662 2400 c-155 -21 -277 -83 -392 -199 -92 -93 -134 -162 -170
-276 -65 -213 -14 -451 137 -629 108 -127 133 -179 133 -273 l0 -43 380 0 380
0 0 43 c0 94 25 146 133 273 154 182 203 418 133 639 -36 112 -88 195 -177
280 -149 142 -358 212 -557 185z m236 -71 c26 -6 84 -29 129 -50 215 -102 356
-345 339 -584 -10 -146 -62 -264 -168 -381 -65 -72 -113 -162 -124 -231 l-6
-43 -318 0 -318 0 -6 43 c-10 68 -58 156 -125 231 -107 120 -156 233 -167 380
-30 406 361 731 764 635z"/>
<path d="M1625 2186 c-130 -42 -240 -135 -292 -246 -39 -81 -55 -163 -38 -187
21 -29 43 -8 55 54 18 85 60 161 124 221 146 138 357 155 523 41 47 -32 71
-36 80 -13 9 24 -34 61 -116 102 -71 35 -80 37 -185 39 -71 2 -125 -2 -151
-11z"/>
<path d="M877 2243 c-21 -20 -1 -43 78 -87 86 -48 115 -53 115 -17 0 14 -23
33 -80 65 -77 45 -100 53 -113 39z"/>
<path d="M2508 2204 c-55 -32 -78 -52 -78 -65 0 -36 29 -31 115 17 69 38 85
52 83 69 -5 33 -38 27 -120 -21z"/>
<path d="M753 1914 c-9 -24 10 -36 84 -50 88 -17 130 -17 136 -1 10 26 -12 40
-84 53 -100 18 -128 17 -136 -2z"/>
<path d="M2607 1915 c-69 -12 -90 -26 -80 -52 6 -16 48 -16 136 1 74 14 93 26
84 50 -7 19 -42 19 -140 1z"/>
<path d="M832 1606 c-68 -14 -88 -26 -79 -50 8 -19 36 -20 136 -2 72 13 94 27
84 53 -6 16 -55 16 -141 -1z"/>
<path d="M2527 1607 c-10 -26 12 -40 84 -53 100 -18 128 -17 136 2 9 24 -10
36 -84 50 -88 17 -130 17 -136 1z"/>
<path d="M1382 901 c-8 -5 -12 -17 -10 -27 3 -18 19 -19 378 -19 359 0 375 1
378 19 2 10 -2 22 -10 27 -17 11 -719 11 -736 0z"/>
<path d="M1372 698 c9 -127 77 -231 187 -284 55 -26 61 -32 61 -60 0 -47 39
-97 88 -114 37 -13 47 -13 84 0 49 17 88 67 88 114 0 28 6 34 61 60 110 53
178 157 187 284 l5 72 -383 0 -383 0 5 -72z m694 -29 c-14 -86 -81 -170 -166
-208 -65 -29 -235 -29 -300 0 -85 38 -152 122 -166 208 l-7 41 323 0 323 0 -7
-41z m-246 -313 c0 -27 -42 -66 -70 -66 -28 0 -70 39 -70 66 0 23 3 24 70 24
67 0 70 -1 70 -24z"/>
</g>
</svg>
