<?xml version="1.0" standalone="no"?>
<!DOCTYPE svg PUBLIC "-//W3C//DTD SVG 20010904//EN"
 "http://www.w3.org/TR/2001/REC-SVG-20010904/DTD/svg10.dtd">
<svg version="1.0" xmlns="http://www.w3.org/2000/svg"
 width="500.000000pt" height="500.000000pt" viewBox="0 0 500.000000 500.000000"
 preserveAspectRatio="xMidYMid meet">

<g transform="translate(0.000000,500.000000) scale(0.100000,-0.100000)"
fill="#000000" stroke="none">
<path d="M2250 4984 c-594 -74 -1107 -319 -1510 -723 -370 -370 -607 -829
-702 -1358 -20 -113 -23 -160 -23 -398 0 -214 4 -293 18 -380 44 -264 117
-492 234 -725 133 -266 275 -465 477 -665 402 -400 913 -647 1481 -715 141
-17 445 -15 590 5 1131 152 2008 1029 2160 2160 20 145 22 449 5 590 -89 744
-490 1394 -1115 1809 -208 139 -516 274 -765 337 -196 49 -294 60 -560 64
-140 1 -271 1 -290 -1z m600 -89 c1379 -209 2288 -1498 2023 -2870 -25 -131
-101 -377 -144 -470 l-24 -50 -3 133 c-3 130 -2 134 23 163 14 17 28 43 31 57
3 15 8 33 10 41 7 23 -15 89 -41 119 l-25 30 0 231 c0 208 -2 238 -21 293 -52
155 -177 272 -334 313 -79 20 -485 21 -560 1 -154 -41 -286 -161 -341 -311
-15 -42 -20 -96 -26 -330 -4 -154 -8 -307 -8 -340 1 -33 3 -295 6 -582 l4
-523 65 0 65 0 0 -242 0 -243 -93 -39 c-50 -22 -144 -56 -207 -77 l-115 -38
-5 632 -5 632 -31 65 c-59 124 -162 206 -288 232 -48 9 -56 14 -56 33 0 17 10
27 43 40 191 76 357 315 357 514 0 45 3 52 29 65 41 22 88 80 102 127 10 33
10 49 -1 82 -9 29 -15 131 -19 322 l-6 280 -28 58 c-42 85 -229 285 -305 325
-87 47 -150 57 -244 42 -72 -11 -82 -11 -150 11 -62 20 -94 23 -213 23 -227 0
-285 -34 -375 -221 -74 -154 -80 -191 -80 -504 0 -214 -3 -274 -15 -302 -31
-75 -8 -157 62 -218 39 -33 40 -36 46 -114 16 -206 137 -384 325 -477 66 -33
82 -46 80 -61 -2 -15 -17 -23 -58 -34 -30 -7 -73 -25 -96 -38 -61 -36 -139
-126 -166 -193 l-23 -57 -3 -647 c-2 -357 -6 -648 -10 -648 -12 0 -226 58
-254 69 l-28 11 0 687 c0 646 -2 690 -19 728 -33 74 -136 145 -208 145 -11 0
-26 7 -33 16 -24 28 -54 38 -135 44 l-80 5 -3 92 -3 93 28 0 c15 0 42 9 60 20
51 31 63 65 63 185 0 104 0 105 24 105 13 0 38 13 55 29 l31 29 0 132 0 132
-34 34 c-19 19 -43 34 -55 34 -20 0 -21 5 -21 79 0 65 -4 83 -22 106 -37 48
-71 55 -258 55 l-170 0 0 59 c0 56 1 59 30 71 56 23 92 102 76 164 -10 40 -64
94 -104 106 -53 14 -103 -3 -146 -50 -30 -34 -36 -47 -36 -86 0 -56 27 -104
76 -134 32 -20 34 -25 34 -76 l0 -54 -167 0 c-140 0 -174 -3 -202 -18 -56 -28
-75 -63 -79 -146 l-4 -74 -38 -6 c-26 -4 -47 -16 -64 -37 -25 -29 -26 -36 -26
-156 l0 -125 34 -34 c24 -24 43 -34 65 -34 l31 0 1 -97 c0 -54 5 -113 12 -132
15 -42 54 -72 104 -80 21 -4 37 -10 36 -14 -2 -4 -3 -45 -3 -92 l0 -85 -76 0
c-75 0 -102 -8 -137 -39 -11 -9 -42 -21 -70 -27 -29 -6 -60 -14 -69 -18 -14
-6 -20 4 -37 61 -72 241 -96 414 -96 693 0 241 13 356 61 559 117 499 408 972
796 1294 389 322 834 506 1363 561 86 9 444 -3 545 -19z m-359 -1345 c56 -17
89 -20 205 -17 136 2 140 1 186 -26 60 -35 254 -247 282 -307 19 -40 21 -68
24 -264 3 -179 1 -217 -10 -214 -10 4 -14 50 -16 216 -1 117 -6 212 -11 212
-5 0 -25 -7 -45 -15 -74 -31 -133 -36 -227 -20 -112 20 -163 12 -341 -50 -122
-43 -139 -46 -208 -43 -64 4 -94 12 -210 62 -74 32 -141 60 -147 63 -10 4 -13
-41 -13 -205 0 -138 -4 -213 -11 -217 -7 -5 -9 74 -7 262 l3 269 48 97 c26 53
47 99 47 102 0 4 9 20 21 36 24 34 82 66 142 79 64 14 214 3 288 -20z m-1543
-276 c27 -19 30 -78 5 -106 -22 -24 -75 -23 -98 2 -57 63 23 153 93 104z
m2035 -238 l97 0 0 -244 0 -244 -47 -77 c-53 -87 -76 -113 -156 -183 l-57 -50
-51 47 c-90 84 -195 112 -304 81 -69 -21 -96 -37 -150 -88 l-41 -38 -76 70
c-42 38 -95 99 -117 135 l-41 65 0 261 c0 244 1 261 18 256 9 -3 57 -22 105
-42 63 -26 109 -38 160 -42 67 -5 83 -2 232 47 88 28 165 54 170 56 6 2 44 1
85 -3 41 -4 119 -7 173 -7z m-1675 -168 c18 -18 17 -727 -1 -751 -11 -16 -44
-18 -399 -18 -213 0 -392 2 -398 6 -15 10 -14 747 2 763 17 17 779 17 796 0z
m3094 -85 c82 -39 145 -100 184 -179 26 -53 29 -71 33 -178 l3 -119 -45 6
c-24 3 -69 16 -100 27 -72 27 -245 142 -328 219 l-67 61 -71 -69 c-168 -164
-334 -232 -444 -183 l-47 21 0 -154 c0 -98 -4 -156 -11 -160 -7 -5 -9 63 -7
226 l3 234 32 66 c51 103 147 182 258 210 17 4 145 7 285 6 l255 -2 67 -32z
m-3982 -264 c0 -119 0 -120 -22 -117 -22 3 -23 7 -26 121 l-3 117 26 0 25 0 0
-121z m1005 1 c0 -96 -3 -115 -15 -115 -12 0 -16 21 -18 118 -2 109 -1 118 15
115 16 -3 18 -16 18 -118z m1785 26 c0 -42 -29 -96 -51 -96 -10 0 -12 132 -2
169 l6 24 24 -27 c16 -19 23 -39 23 -70z m-1260 -3 l-1 -88 -19 24 c-22 26
-27 99 -10 132 21 38 30 18 30 -68z m2329 -183 c76 -51 191 -106 244 -115 l37
-7 0 -74 0 -74 -58 0 c-50 0 -62 4 -83 26 -66 73 -181 72 -248 0 -22 -23 -32
-26 -91 -26 -55 0 -70 4 -86 21 -68 76 -195 77 -265 3 -18 -20 -32 -24 -76
-24 l-53 0 0 93 0 92 58 2 c109 3 221 56 354 168 l73 62 65 -52 c36 -29 94
-71 129 -95z m-2085 -149 c52 -45 98 -81 102 -81 5 1 23 24 39 53 43 74 106
111 199 115 96 5 164 -29 218 -106 20 -30 39 -59 41 -65 4 -13 70 40 187 152
41 39 75 71 76 71 0 0 -3 -35 -8 -79 -25 -263 -237 -451 -508 -451 -144 0
-273 53 -371 151 -90 93 -138 209 -139 339 l0 65 36 -42 c19 -23 77 -78 128
-122z m1716 -126 c37 -19 50 -43 50 -95 0 -33 -6 -48 -29 -71 -90 -89 -224 31
-155 139 27 41 84 53 134 27z m456 -16 c48 -46 39 -136 -17 -164 -98 -51 -193
40 -147 141 25 55 117 67 164 23z m-3201 -139 l0 -85 -257 -3 -258 -2 0 90 0
90 258 -2 257 -3 0 -85z m2515 55 c0 -36 34 -98 70 -128 66 -56 155 -55 221 0
34 29 68 94 69 131 0 18 5 22 34 22 33 0 34 -2 46 -51 23 -95 125 -163 209
-139 79 22 141 92 141 159 0 30 1 31 46 31 l45 0 -3 -207 c-3 -204 -4 -209
-31 -264 -54 -112 -167 -188 -315 -215 -100 -17 -158 -17 -262 1 -167 29 -286
118 -329 247 -18 54 -21 85 -21 250 l0 188 40 0 c36 0 40 -2 40 -25z m1010
-73 c0 -37 -22 -82 -41 -82 -5 0 -9 39 -9 88 l1 87 24 -28 c17 -19 25 -40 25
-65z m-1170 -2 c0 -83 -8 -96 -34 -58 -20 28 -20 71 -1 108 25 49 35 35 35
-50z m-2109 -179 l29 -29 0 -691 0 -692 -77 42 c-400 216 -749 554 -961 930
l-32 56 0 181 0 180 31 26 31 26 475 0 475 0 29 -29z m1269 -43 c0 -73 -21
-115 -65 -134 -44 -18 -79 -18 -115 1 -46 24 -60 52 -60 125 l0 65 120 1 120
1 0 -59z m843 -15 c3 -43 14 -103 26 -133 41 -108 147 -211 262 -256 57 -22
68 -32 49 -44 -8 -5 -23 -10 -33 -10 -36 0 -129 -55 -173 -102 -53 -56 -91
-133 -100 -200 -6 -42 -10 -48 -30 -48 l-24 0 0 435 c0 239 4 435 9 435 4 0
11 -35 14 -77z m-3233 -65 c0 -48 -4 -78 -9 -72 -8 8 -51 118 -51 130 0 5 39
22 53 23 4 1 7 -36 7 -81z m1297 53 c13 -9 32 -34 43 -57 19 -39 20 -59 20
-702 0 -392 -4 -662 -9 -662 -5 0 -34 10 -65 21 l-56 22 0 704 0 704 23 -7
c12 -4 32 -14 44 -23z m782 -51 c47 -159 264 -191 352 -52 16 25 29 56 29 69
0 29 30 30 100 4 111 -42 181 -132 200 -257 7 -44 9 -276 8 -649 l-3 -580 -46
-11 c-25 -7 -100 -20 -165 -30 -149 -23 -499 -26 -651 -5 l-103 13 0 642 c0
747 -4 714 88 806 40 39 72 61 107 72 69 23 70 23 84 -22z m2253 -171 l-3
-111 -56 -92 c-31 -50 -58 -93 -59 -95 -2 -2 -18 9 -36 24 -41 35 -103 61
-162 70 -54 9 -59 20 -12 29 105 20 263 145 302 239 10 26 21 47 24 47 3 0 4
-50 2 -111z m-442 -209 c0 -7 -65 -94 -100 -133 -4 -5 -32 17 -61 48 -59 62
-72 81 -66 93 7 10 227 3 227 -8z m-191 -166 c47 -52 88 -91 91 -87 4 5 40 48
80 97 l73 88 53 -5 c50 -5 142 -45 164 -72 14 -17 -104 -161 -249 -305 -159
-158 -327 -285 -514 -390 l-58 -33 3 304 3 304 31 55 c44 78 135 137 214 139
19 0 44 -22 109 -95z"/>
<path d="M2125 2789 c-26 -21 -27 -24 -23 -115 3 -82 6 -95 27 -118 24 -26 27
-26 168 -26 138 0 145 1 168 24 22 22 45 81 45 118 0 26 28 48 61 48 26 0 29
-3 29 -31 0 -47 20 -107 46 -134 22 -24 27 -25 167 -25 141 0 144 0 168 26 22
24 24 33 24 127 0 98 -1 102 -25 114 -34 17 -284 17 -325 -1 -21 -9 -37 -10
-57 -2 -19 7 -36 6 -65 -5 -34 -13 -41 -13 -73 3 -28 15 -61 18 -171 18 -124
0 -139 -2 -164 -21z"/>
<path d="M672 2677 c-23 -25 -29 -75 -12 -106 16 -31 65 -46 100 -31 37 15 50
37 50 83 0 69 -90 105 -138 54z"/>
<path d="M1023 2678 c-31 -34 -36 -63 -18 -98 20 -39 58 -54 98 -40 39 13 56
37 57 78 0 71 -91 110 -137 60z"/>
<path d="M800 2301 c0 -58 72 -105 128 -85 31 11 61 50 64 84 3 27 6 26 -87
19 -16 -2 -47 1 -67 5 -38 8 -38 8 -38 -23z"/>
<path d="M2430 2158 c0 -46 72 -108 125 -108 55 0 115 52 115 100 0 19 -6 20
-120 20 -89 0 -120 -3 -120 -12z"/>
<path d="M3930 1625 c0 -38 6 -51 36 -85 40 -44 97 -65 145 -55 63 14 119 87
119 155 l0 30 -150 0 -150 0 0 -45z m200 -50 c-16 -19 -80 -19 -106 0 -17 13
-13 14 50 15 60 0 67 -2 56 -15z"/>
<path d="M781 1544 c-89 -32 -169 -99 -217 -179 -28 -49 -56 -154 -52 -196 l3
-31 120 1 120 2 37 -45 c71 -84 155 -85 225 0 l38 45 120 -2 120 -1 3 26 c5
40 -15 122 -44 180 -36 72 -115 149 -188 183 -76 35 -213 43 -285 17z m254
-83 c86 -38 160 -128 180 -218 l7 -33 -91 0 c-90 0 -91 0 -106 29 -13 27 -13
34 5 87 11 31 18 59 15 62 -2 2 -26 -14 -53 -37 -40 -32 -58 -41 -88 -41 -47
0 -96 -28 -120 -69 -18 -31 -19 -31 -106 -31 -48 0 -88 4 -88 8 0 28 32 107
59 144 83 116 251 159 386 99z m-77 -248 c31 -43 1 -103 -51 -103 -62 0 -90
67 -46 111 24 24 75 20 97 -8z"/>
<path d="M2720 1135 l0 -94 43 -26 c54 -31 58 -31 107 0 l40 25 0 95 0 95 -95
0 -95 0 0 -95z"/>
</g>
</svg>
